<?xml version="1.0" encoding="UTF-8"?> <svg xmlns="http://www.w3.org/2000/svg" xmlns:xlink="http://www.w3.org/1999/xlink" width="500px" height="114px" viewBox="0 0 500 114" version="1.1"><title>Weinreb-Logo-White</title><g id="Page-1" stroke="none" stroke-width="1" fill="none" fill-rule="evenodd"><g id="Weinreb-Logo-White" fill="#FFFFFF" fill-rule="nonzero"><path d="M0,0.00538128355 L27.0626623,0.00538128355 C33.7671461,-0.163430451 39.9379403,3.65169081 42.7928348,9.73063114 C53.8208697,31.9089448 64.7812479,54.1380873 75.8431111,76.316401 C76.8538222,78.1563699 77.0143736,80.3460581 76.2828794,82.3142032 C73.2383299,91.7005942 70.3967504,101.154757 67.4706,110.591977 C66.8109476,112.726788 66.0328961,113.252019 63.7325698,113.268962 C61.4322435,113.285905 59.3518013,113.268962 57.1698741,113.268962 C56.2297463,113.328561 55.3307475,112.875058 54.8188054,112.082956 C54.3176614,111.440071 53.8653489,110.760448 53.4656722,110.049803 L0,0.00538128355 Z" id="Path"></path><path d="M60.2923264,0.00698990371 L87.4155218,0.00698990371 C94.1163849,-0.18614895 100.289013,3.6372472 103.114867,9.73134237 C114.150036,31.9076096 125.08381,54.1347009 136.152777,76.3109681 C137.148284,78.1558521 137.302245,80.3413842 136.575257,82.3082169 C133.550303,91.6937417 130.711239,101.147032 127.78768,110.583381 C127.128612,112.717995 126.351249,113.243178 124.052959,113.260119 C121.75467,113.276492 119.67607,113.260119 117.479176,113.260119 C116.511119,113.369559 115.563876,112.924225 115.028794,112.108105 C114.528478,111.46132 114.07121,110.782194 113.659959,110.07514 L60.2923264,0.00698990371 Z" id="Path"></path><path d="M145.929472,52.9841657 L127.779364,16.4888482 C126.360527,14.309559 125.794034,11.6850141 126.187843,9.11537354 L126.187843,9.11537354 C126.960155,3.88093844 131.455778,0.00215635516 136.752832,0 L162.606577,0 L145.929472,52.9841657 Z" id="Path"></path><polygon id="Path" points="269.183922 12.180268 255.982212 52.9841657 243.6448 52.9841657 235.866129 28.1277913 227.714624 52.9841657 215.394158 52.9841657 202.192448 12.180268 214.055345 12.180268 222.257691 38.2607592 230.849818 12.180268 241.44169 12.180268 249.644036 38.5667885 258.117534 12.2482745"></polygon><polygon id="Path" points="306.942753 44.058313 306.942753 52.9841657 274.056029 52.9841657 274.056029 12.180268 306.175566 12.180268 306.175566 21.1061206 285.529728 21.1061206 285.529728 27.9917783 303.72057 27.9917783 303.72057 36.6286033 285.529728 36.6286033 285.529728 44.1093179"></polygon><polygon id="Path" points="313.032887 12.180268 324.604141 12.180268 324.604141 52.9841657 313.032887 52.9841657"></polygon><polygon id="Path" points="371.498173 12.180268 371.498173 52.9841657 362.099226 52.9841657 344.308362 31.2220869 344.308362 52.9841657 333.130329 52.9841657 333.130329 12.180268 342.512492 12.180268 360.32014 33.9423467 360.32014 12.180268"></polygon><path d="M397.042642,42.0827498 L390.820257,42.0827498 L390.820257,52.9332245 L379.415347,52.9332245 L379.415347,12.180268 L397.864466,12.180268 C408.850078,12.180268 415.760112,17.9536035 415.760112,27.2758423 C415.964537,32.7947852 412.848329,37.8896799 407.877306,40.1639648 L416.565164,52.9841657 L404.355202,52.9841657 L397.042642,42.0827498 Z M397.143273,21.2308204 L390.820257,21.2308204 L390.820257,33.1170994 L397.143273,33.1170994 C401.872957,33.1170994 404.237798,30.9096476 404.237798,27.1739599 C404.237798,23.4382722 401.872957,21.2308204 397.143273,21.2308204 L397.143273,21.2308204 Z" id="Shape"></path><polygon id="Path" points="454.933009 44.058313 454.933009 52.9841657 422.046285 52.9841657 422.046285 12.180268 454.165822 12.180268 454.165822 21.1061206 433.519984 21.1061206 433.519984 27.9917783 451.710826 27.9917783 451.710826 36.6286033 433.519984 36.6286033 433.519984 44.1093179"></polygon><path d="M499.999082,41.7800954 C499.999082,48.8357694 494.141624,52.9841657 483.158888,52.9841657 L461.023143,52.9841657 L461.023143,12.180268 L481.949936,12.180268 C492.694286,12.180268 497.955783,16.566687 497.955783,22.8572879 C498.009392,26.6329337 495.854108,30.093418 492.438874,31.715134 C496.956093,32.9659681 500.061276,37.0999203 499.999082,41.7800954 L499.999082,41.7800954 Z M472.53373,20.4770605 L472.53373,28.3148092 L480.519626,28.3148092 C484.384868,28.3148092 486.377085,26.9716809 486.377085,24.3534308 C486.377085,21.7351807 484.384868,20.4430572 480.519626,20.4430572 L472.53373,20.4770605 Z M488.301192,40.487972 C488.301192,37.6997056 486.20681,36.3565773 482.222376,36.3565773 L472.53373,36.3565773 L472.53373,44.6363683 L482.222376,44.6363683 C486.20681,44.6363683 488.301192,43.29324 488.301192,40.487972 Z" id="Shape"></path><polygon id="Path" points="233.252132 72.4725944 221.831631 98.6601705 219.127659 98.6601705 207.673569 72.4725944 210.629463 72.4725944 220.538427 95.2274058 230.51457 72.4725944"></polygon><polygon id="Path" points="267.965895 96.2810267 267.965895 98.6601705 249.695493 98.6601705 249.695493 72.4725944 267.412755 72.4725944 267.412755 74.8687321 252.427673 74.8687321 252.427673 84.1813809 265.837142 84.1813809 265.837142 86.5435308 252.427673 86.5435308 252.427673 96.2810267"></polygon><polygon id="Path" points="308.16078 72.4725944 308.16078 98.592371 305.864577 98.592371 289.008749 77.4728112 289.008749 98.6601705 286.236297 98.6601705 286.236297 72.4725944 288.5325 72.4725944 305.422345 93.6769036 305.422345 72.4725944"></polygon><polygon id="Path" points="332.650737 74.8687321 323.386114 74.8687321 323.386114 72.4725944 344.701583 72.4725944 344.701583 74.8687321 335.436961 74.8687321 335.436961 98.6601705 332.650737 98.6601705"></polygon><path d="M360.535932,87.3430958 L360.535932,72.4725944 L363.280341,72.4725944 L363.280341,87.2252096 C363.280341,93.3889735 366.159444,96.2014013 371.210503,96.2014013 C376.261562,96.2014013 379.174339,93.3889735 379.174339,87.2252096 L379.174339,72.4725944 L381.851401,72.4725944 L381.851401,87.3430958 C381.851401,94.8036079 377.844227,98.6601705 371.210503,98.6601705 C364.576779,98.6601705 360.535932,94.8036079 360.535932,87.3430958 Z" id="Path"></path><path d="M419.673164,98.6601705 L413.742593,90.2481977 C413.054291,90.3236137 412.362603,90.3633184 411.670263,90.3671549 L404.695102,90.3671549 L404.695102,98.6601705 L401.948843,98.6601705 L401.948843,72.4725944 L411.670263,72.4725944 C418.274763,72.4725944 422.284638,75.8713713 422.284638,81.4623593 C422.458826,85.2822571 419.968078,88.7074543 416.303522,89.6873995 L422.655298,98.6601705 L419.673164,98.6601705 Z M419.538379,81.4623593 C419.538379,77.2648698 416.79212,74.8687321 411.586022,74.8687321 L404.695102,74.8687321 L404.695102,88.0050049 L411.586022,88.0050049 C416.707879,88.0050049 419.454138,85.5748794 419.454138,81.4623593 L419.538379,81.4623593 Z" id="Shape"></path><polygon id="Path" points="458.587089 96.2810267 458.587089 98.6601705 440.316687 98.6601705 440.316687 72.4725944 458.033948 72.4725944 458.033948 74.8687321 443.048866 74.8687321 443.048866 84.1813809 456.458336 84.1813809 456.458336 86.5435308 443.048866 86.5435308 443.048866 96.2810267"></polygon><path d="M474.421437,95.8270392 L475.508847,93.6915524 C477.894319,95.7925683 480.969234,96.9306789 484.140165,96.8862407 C489.050502,96.8862407 491.17435,94.8190895 491.17435,92.2223375 C491.17435,84.9958501 475.050096,89.4376627 475.050096,79.6998427 C475.050096,75.8217987 478.040474,72.4733553 484.700861,72.4733553 C487.574234,72.4442421 490.394692,73.2511131 492.822456,74.796765 L491.887963,77.0176713 C489.742201,75.6306903 487.251579,74.878817 484.700861,74.8480167 C479.926451,74.8480167 477.785612,76.9835035 477.785612,79.6144233 C477.785612,86.8409107 493.909866,82.4845175 493.909866,92.0685824 C493.909866,95.9466265 490.834534,99.260902 484.140165,99.260902 C480.58687,99.3827182 477.117865,98.1570343 474.421437,95.8270392 L474.421437,95.8270392 Z" id="Path"></path></g></g></svg> 