<svg xmlns="http://www.w3.org/2000/svg" viewBox="0 0 570.17 100.23"><defs><style>.cls-1{fill:#fff;}.cls-2{fill:#cedaef;}.cls-3{fill:#1662a8;}</style></defs><title>Asset 2</title><g id="Layer_2" data-name="Layer 2"><g id="Layer_1-2" data-name="Layer 1"><path class="cls-1" d="M150.17,36.56a83.39,83.39,0,0,1,11.88-1c8.61,0,15.46,2.74,15.46,11a8.28,8.28,0,0,1-6.91,8.29c5,.52,8.81,3.71,8.81,9.26,0,7.38-5.68,11.36-18.73,11.36a79,79,0,0,1-10.51-.79Zm9.34,15.14h2.8c4.05,0,5.68-1.5,5.68-4.3,0-2.55-2-3.72-5-3.72a25.19,25.19,0,0,0-3.52.26Zm0,15.66c.84.07,2.35.13,3.06.13,3.92,0,6.92-1,6.92-4.11s-2.22-4-5.61-4h-4.37Z"/><path class="cls-1" d="M192.92,74.93h-9.66V36.37a84.48,84.48,0,0,1,12.27-.85c9.92,0,16.58,4.18,16.58,13.44a12.72,12.72,0,0,1-7,11.49L215.5,74.93H204.08l-8.35-12.4h-2.81Zm0-20.36h2.42c4,0,6.91-1.37,6.91-5.35s-3-5.28-6.65-5.28c-.79,0-2.16.06-2.68.13Z"/><path class="cls-1" d="M243.63,66.39v8.54h-26.1V36.17h25.65v8.55H227.12v6.66h14.62v8.35H227.12v6.66Z"/><path class="cls-1" d="M257.47,67.56l-2.67,7.37H244.55l15.08-38.76h11.68l15.07,38.76H275.75l-2.62-7.37Zm8-21.67-5,13.77h9.92Z"/><path class="cls-1" d="M288.41,36.17h9.73V74.93h-9.73Zm21.73,0h11.22L308.9,55l13.31,20H310.8L298.33,55.75Z"/><path class="cls-1" d="M344.35,74.93h-9.73V36.17h9.73Z"/><path class="cls-1" d="M375.73,59.92V36.17h9.4V74.93h-9.2L359.75,51.64V74.93h-9.4V36.17h9.79Z"/><path class="cls-1" d="M409.42,74.93h-9.66V44.72H388.14V36.17H421v8.55H409.42Z"/><path class="cls-1" d="M441,35.52c11.22,0,20.23,8.22,20.23,20s-9,20-20.23,20-20.17-8.23-20.17-20S429.78,35.52,441,35.52Zm0,8.74c-5.87,0-10.18,4.51-10.18,11.29S435.14,66.84,441,66.84s10.18-4.5,10.18-11.29S447,44.26,441,44.26Z"/><path class="cls-1" d="M504.45,48.37a14.64,14.64,0,0,0-10.51-4.11c-6.39,0-10.05,4.7-10.05,11.29,0,6.85,4.18,11.29,10.44,11.29,4.64,0,7.51-1.37,10.9-4v9.92a20.67,20.67,0,0,1-11.36,2.87c-12.2,0-20-8.29-20-20s8-20,20-20A20.28,20.28,0,0,1,504.45,38Z"/><path class="cls-1" d="M519.47,74.93h-9.66V36.37a84.27,84.27,0,0,1,12.27-.85c9.91,0,16.57,4.18,16.57,13.44a12.7,12.7,0,0,1-7,11.49L542,74.93H530.62l-8.35-12.4h-2.8Zm0-20.36h2.41c4,0,6.92-1.37,6.92-5.35s-3-5.28-6.66-5.28c-.78,0-2.15.06-2.67.13Z"/><path class="cls-1" d="M570.17,66.39v8.54h-26.1V36.17h25.64v8.55H553.66v6.66h14.62v8.35H553.66v6.66Z"/><polygon class="cls-2" points="52.05 91.58 52.05 0 18.48 19.92 18.48 91.58 52.05 91.58"/><polygon class="cls-3" points="60.37 91.58 60.37 17.77 70.73 12.86 52.05 0 52.05 91.58 60.37 91.58"/><polygon class="cls-2" points="94 91.58 94 7.3 72.67 22.31 72.67 91.58 94 91.58"/><polygon class="cls-3" points="112.93 91.58 112.93 22.31 93.57 7.3 93.57 91.58 112.93 91.58"/><rect class="cls-3" y="91.57" width="131.41" height="8.66"/></g></g></svg>