<svg xmlns="http://www.w3.org/2000/svg" id="Layer_1" data-name="Layer 1" viewBox="0 0 602.24 193.93"><defs><style>      .cls-1 {        fill: #fff;        stroke-width: 0px;      }    </style></defs><g><polygon class="cls-1" points="126.79 97.68 114.15 97.68 114.15 69.31 95.1 56.47 76.06 69.31 76.06 97.68 63.42 97.68 63.42 62.59 95.1 41.22 126.79 62.59 126.79 97.68"></polygon><polygon class="cls-1" points="69.8 137.74 38.11 116.37 38.11 81.28 50.75 81.28 50.75 109.65 69.8 122.49 88.84 109.65 88.84 81.28 101.48 81.28 101.48 116.37 69.8 137.74"></polygon></g><g><path class="cls-1" d="M152.13,81.27h35.01v10.92h-22.69v13.8h21.29v10.06h-21.29v21.68h-12.32v-56.46Z"></path><path class="cls-1" d="M192.45,81.27h11.93v56.46h-11.93v-56.46Z"></path><path class="cls-1" d="M212.18,93.13h11.77v44.6h-11.77v-44.6Z"></path><path class="cls-1" d="M231.9,93.13h11.85v7.25c1.95-4.6,7.25-8.11,14.27-8.11,10.22,0,19.73,7.02,19.73,23.08s-9.59,23.08-19.81,23.08c-7.02,0-12.24-3.66-14.19-8.27v21.99h-11.85v-59.03ZM265.9,115.35c0-8.42-4.6-13.41-11.23-13.41s-11.31,4.99-11.31,13.41,4.68,13.33,11.23,13.33,11.31-4.91,11.31-13.33Z"></path><path class="cls-1" d="M280.87,122.45l11.77-1.56c1.72,5.07,6,7.8,12.09,7.8s9.75-2.5,9.67-6.71c-.16-11.07-31.5-3.82-31.5-25.03,0-9.9,8.42-16.53,20.51-16.53s20.51,5.22,22.69,15.28l-11.31,1.56c-1.79-4.52-5.38-6.86-10.99-6.86s-8.89,2.42-8.89,6.32c0,12.01,31.89,3.43,31.89,24.88,0,10.22-8.66,16.92-21.99,16.92-12.48,0-21.52-5.77-23.94-16.06Z"></path><path class="cls-1" d="M346.41,137.5l-18.48-44.37h12.94l11.85,31.66,11.77-31.66h13.02l-24.41,59.03h-13.02l6.32-14.66Z"></path><path class="cls-1" d="M374.29,126.35l10.76-1.79c1.64,3.51,5.46,5.54,10.53,5.54s8.34-1.79,8.34-4.91c0-8.89-28.15-1.64-27.99-19.49.16-8.03,8.11-13.33,19.18-13.33,9.2,0,17.47,4.29,19.65,11.23l-10.61,1.87c-1.33-3.04-4.76-4.83-8.73-4.83-4.91,0-7.8,1.72-7.8,4.68,0,8.89,28.23.94,28.23,18.79,0,8.89-7.88,14.43-20.35,14.43-11.07,0-19.03-4.91-21.21-12.16Z"></path><path class="cls-1" d="M417.1,93.13h6.32v-8.03l11.93-2.5v10.53h8.97v8.97h-8.97v35.64h-11.93v-35.64h-6.32v-8.97Z"></path><path class="cls-1" d="M443.77,115.43c0-13.72,9.36-23.16,22.85-23.16,14.74,0,23.39,10.29,21.99,25.89h-32.98c.23,7.25,4.6,11.46,11.7,11.46,5.07,0,8.42-1.87,10.06-5.54l10.84,1.33c-3.2,8.66-10.45,13.18-21.21,13.18-14.04,0-23.24-9.2-23.24-23.16ZM477.76,110.36c-.47-5.93-4.52-9.75-10.84-9.75s-10.37,3.43-11.07,9.75h21.91Z"></path><path class="cls-1" d="M494.48,93.13h11.85v7.33c1.56-4.99,6.63-8.19,12.94-8.19,7.25,0,10.99,2.57,13.41,9.51,2.11-5.38,7.33-9.51,15.67-9.51,11.15,0,15.75,6.39,15.75,21.91v23.55h-11.85v-22.46c0-9.44-2.34-13.02-8.42-13.02s-8.73,3.74-8.73,12.63v22.85h-11.85v-22.38c0-9.67-2.18-13.02-8.19-13.02s-8.73,3.98-8.73,13.41v21.99h-11.85v-44.6Z"></path><rect class="cls-1" x="212.17" y="81.27" width="11.77" height="8.95"></rect></g></svg>